<?xml version="1.0" encoding="utf-8"?>
<!-- Generator: Adobe Illustrator 23.0.3, SVG Export Plug-In . SVG Version: 6.00 Build 0)  -->
<svg version="1.1" id="Layer_1" xmlns="http://www.w3.org/2000/svg" xmlns:xlink="http://www.w3.org/1999/xlink" x="0px" y="0px"
	 viewBox="0 0 50 50" style="enable-background:new 0 0 50 50;" xml:space="preserve">
<style type="text/css">
	.st0{fill:#4A4947;}
</style>
<g>
	<g>
		<g>
			<path class="st0" d="M40.7,7.8l-14-4.2c-1.1-0.3-2.2-0.3-3.3,0L9.3,7.8c-1,0.3-1.8,1.3-1.8,2.4v11.6c0,5.4,1.6,10.6,4.6,15
				c3,4.3,7.1,7.7,11.9,9.6c0.3,0.1,0.6,0.2,0.9,0.2s0.6-0.1,0.9-0.2c4.8-2,9-5.3,11.9-9.6c3-4.4,4.6-9.6,4.6-15V10.1
				C42.5,9.1,41.8,8.1,40.7,7.8z M40.5,21.8c0,5-1.5,9.8-4.3,13.9c-2.7,4-6.6,7.1-11,8.9c-0.1,0-0.3,0-0.4,0
				c-4.5-1.8-8.3-4.9-11-8.9c-2.8-4.1-4.3-8.9-4.3-13.9V10.1c0-0.2,0.1-0.4,0.4-0.5L24,5.5c0.4-0.1,0.7-0.2,1.1-0.2s0.7,0.1,1.1,0.2
				l14.1,4.1c0.2,0.1,0.4,0.3,0.4,0.5L40.5,21.8L40.5,21.8z"/>
		</g>
	</g>
	<g>
		<g>
			<path class="st0" d="M36.7,11.4L25.4,8.1c-0.3-0.1-0.6-0.1-0.9,0l-11.3,3.3c-0.7,0.2-1.1,0.8-1.1,1.5v8.9c0,4.7,1.4,9.2,4.1,13
				c2.1,3,4.9,5.4,8,7.1c0.2,0.1,0.5,0.2,0.7,0.2c0.3,0,0.5-0.1,0.7-0.2c3.2-1.7,5.9-4.1,8-7.1c2.7-3.8,4.1-8.3,4.1-13v-8.9
				C37.9,12.2,37.4,11.6,36.7,11.4z"/>
		</g>
	</g>
</g>
</svg>
