<?xml version="1.0" encoding="utf-8"?>
<!-- Generator: Adobe Illustrator 23.0.1, SVG Export Plug-In . SVG Version: 6.00 Build 0)  -->
<svg version="1.1" id="Capa_1" xmlns="http://www.w3.org/2000/svg" xmlns:xlink="http://www.w3.org/1999/xlink" x="0px" y="0px"
	 viewBox="0 0 306 306" style="enable-background:new 0 0 306 306;" xml:space="preserve">
<style type="text/css">
	.st0{fill:#AD9651;}
</style>
<g>
	<g id="star-rate">
		<path class="st0" d="M157.2,233.8l72.7,53c5.5,4,13-1.3,10.9-7.9l-27.6-86.6c-0.9-2.9,0.1-6.2,2.7-7.9l71.8-50.4
			c5.7-4,2.8-12.9-4.1-12.9h-87.2c-3.1,0-5.8-2-6.7-4.8l-29.9-89.7c-2.2-6.5-11.3-6.5-13.4,0l-29.9,89.7c-1,2.9-3.7,4.8-6.7,4.8
			H22.4c-6.9,0-9.7,8.9-4.1,12.9l71.8,50.4c2.5,1.8,3.6,5,2.7,7.9L65.2,279c-2.1,6.5,5.4,11.9,10.9,7.9l72.7-53
			C151.3,232,154.7,232,157.2,233.8z"/>
	</g>
</g>
</svg>
